<svg xmlns="http://www.w3.org/2000/svg" viewBox="0 0 620 120" role="img" aria-labelledby="logoTitle">
  <title id="logoTitle">LedgerBridge</title>
  <defs>
    <linearGradient id="gold" x1="0" y1="0" x2="1" y2="1">
      <stop offset="0" stop-color="#f7dfab"/>
      <stop offset="0.48" stop-color="#c99a46"/>
      <stop offset="1" stop-color="#8c6428"/>
    </linearGradient>
    <linearGradient id="silver" x1="0" y1="0" x2="1" y2="1">
      <stop offset="0" stop-color="#ffffff"/>
      <stop offset="0.58" stop-color="#f4f7fa"/>
      <stop offset="1" stop-color="#c5cfda"/>
    </linearGradient>
    <linearGradient id="tower" x1="0" y1="0" x2="1" y2="0">
      <stop offset="0" stop-color="#e9eef3"/>
      <stop offset="0.48" stop-color="#ffffff"/>
      <stop offset="1" stop-color="#b8c4d1"/>
    </linearGradient>
  </defs>

  <g transform="translate(10 11)">
    <path d="M50 4 A46 46 0 1 0 87 78" fill="none" stroke="url(#gold)" stroke-width="4.2" stroke-linecap="round"/>
    <path d="M50 4 A46 46 0 0 0 11 75" fill="none" stroke="url(#silver)" stroke-width="4.2" stroke-linecap="round"/>
    <path d="M15 72 C29 67 44 58 58 42 C64 35 70 28 77 24" fill="none" stroke="url(#silver)" stroke-width="5" stroke-linecap="round"/>
    <path d="M73 43 C82 53 92 59 101 62" fill="none" stroke="url(#gold)" stroke-width="5" stroke-linecap="round"/>
    <path d="M8 76 C26 73 48 75 70 86" fill="none" stroke="url(#silver)" stroke-width="5" stroke-linecap="round"/>
    <path d="M71 87 C83 79 96 75 110 76" fill="none" stroke="url(#silver)" stroke-width="5" stroke-linecap="round"/>
    <path d="M61 35 L61 87" stroke="#ffffff" stroke-width="4.6" stroke-linecap="round"/>
    <path d="M72 22 L72 88" stroke="url(#tower)" stroke-width="9" stroke-linecap="round"/>
    <path d="M72 20 L76 30 L72 30 Z" fill="#ffffff"/>
    <path d="M83 43 L83 77 M95 57 L95 76 M50 52 L50 78 M39 61 L39 76 M28 68 L28 75" stroke="#f7f9fb" stroke-width="3.3" stroke-linecap="round"/>
    <path d="M19 75 L70 88" stroke="#ffffff" stroke-width="3.5" stroke-linecap="round"/>
    <path d="M73 88 C84 80 95 76 111 76" stroke="#ffffff" stroke-width="3.5" stroke-linecap="round"/>
    <path d="M30 90 A44 44 0 0 0 88 89" fill="none" stroke="url(#gold)" stroke-width="4" stroke-linecap="round" opacity="0.92"/>
  </g>

  <g transform="translate(132 0)">
    <text x="0" y="73" font-family="Arial, Helvetica, sans-serif" font-size="35" font-weight="800" letter-spacing="5.2" fill="#ffffff">
      <tspan>LEDGER</tspan><tspan fill="url(#gold)">BRIDGE</tspan>
    </text>
  </g>
</svg>
